<svg viewBox="0 0 4200 2940" xmlns="http://www.w3.org/2000/svg" xmlns:xlink="http://www.w3.org/1999/xlink"><defs><circle id="a" cx="735" cy="735" r="735"/><path d="M.5 70V0h63v70H.5zM32 23v12h31.5V23H32z" id="c"/></defs><g fill="none" fill-rule="evenodd"><path fill="#009B3A" fill-rule="nonzero" d="M0 0h4200v2940H0z"/><path fill="#FEDF00" fill-rule="nonzero" d="M357 1470l1743 1113 1743-1113L2100 357z"/><circle fill="#002776" fill-rule="nonzero" cx="2100" cy="1470" r="735"/><g transform="translate(1365 735)"><mask id="b" fill="#fff"><use xlink:href="#a"/></mask><path d="M-1470 2205c0-985.828 799.172-1785 1785-1785s1785 799.172 1785 1785h-105c0-927.838-752.162-1680-1680-1680s-1680 752.162-1680 1680h-105z" fill="#FFF" fill-rule="nonzero" mask="url(#b)"/></g><path d="M1473.127 1255.153c-17.268 2.12-33.175-11.714-35.53-30.9-2.357-19.186 9.732-36.458 26.999-38.578 17.267-2.12 33.175 11.714 35.53 30.9 2.356 19.186-9.732 36.458-27 38.578zm-1.585-12.903c10.142-1.245 17.162-12.031 15.681-24.09-1.48-12.06-10.902-20.827-21.043-19.582-10.14 1.245-17.161 12.03-15.68 24.09 1.48 12.06 10.901 20.827 21.042 19.582z" fill="#009B3A" fill-rule="nonzero"/><g fill="#009B3A" fill-rule="nonzero"><path d="M1530.165 1248.832l-3.885-69.899 39.902-2.79c12.121-.848 22.634 8.291 23.481 20.412.848 12.12-8.29 22.633-20.411 23.48l-27.932 1.954 1.813 25.937-12.968.906zm10.248-39.811l26.934-1.884a9 9 0 0 0-1.255-17.956l-26.935 1.883 1.256 17.957z"/><path d="M1589.52 1244.682c-.697-9.976-2.232-31.922-17.195-30.876l-18.954 1.326c21.946-1.535 23.48 20.411 24.178 30.387"/></g><path d="M1618.88 1243.308l-1.222-69.99 32.995-.575a30 30 0 0 1 30.519 29.472l.174 9.998c.29 16.566-12.906 30.23-29.472 30.52l-32.995.575zm12.77-13.225l18.998-.331c10.491-.183 18.848-8.837 18.665-19.329l-.105-5.999c-.183-10.492-8.837-18.849-19.328-18.666l-18.997.332.767 43.993zM1707.761 1242.435l62.962 2.198.453-12.992-50.969-1.78.629-17.989 39.975 1.396.42-11.992-39.977-1.396.489-13.992 47.97 1.675.454-12.992-59.963-2.094zM1796.567 1246.214l11.954 1.046 4.184-47.817 9.763 49.037 10.958.959 18.13-46.597-4.183 47.817 11.954 1.046 6.1-69.734-17.432-1.525-18.13 46.597-9.764-49.037-17.433-1.526zM1941.6 1262.573l51.742 8.891 2.032-11.827-39.915-6.858 2.71-15.77 32.523 5.59 2.032-11.827-32.523-5.589 1.862-10.841 38.684 6.647 2.032-11.827-50.51-8.679zM2074.523 1288.682l18.495-67.52 38.726 10.016c11.763 3.042 18.833 15.044 15.79 26.807-3.041 11.764-15.043 18.833-26.807 15.791l-27.108-7.01-6.51 25.171-12.586-3.255zm22.351-34.502l26.14 6.76a9 9 0 0 0 4.507-17.427l-26.14-6.76-4.507 17.427z" fill="#009B3A" fill-rule="nonzero"/><g fill="#009B3A" fill-rule="nonzero"><path d="M2160.406 1311.593l22.003-66.46 38.149 12.029c11.588 3.654 18.02 16.01 14.366 27.597-3.654 11.588-16.01 18.02-27.597 14.367l-26.704-8.42-7.819 24.796-12.398-3.909zm24.126-33.286l25.75 8.12a9 9 0 0 0 5.413-17.167l-25.75-8.12-5.413 17.167z"/><path d="M2217.152 1329.485c3.007-9.537 9.623-30.519-4.683-35.03l-18.12-5.713c20.981 6.616 14.366 27.598 11.359 37.135"/></g><path d="M2274.477 1349.999c-16.295-6.093-24.017-25.71-17.248-43.815 6.77-18.106 25.467-27.845 41.763-21.752 16.295 6.092 24.017 25.71 17.247 43.815-6.769 18.106-25.467 27.845-41.762 21.752zm4.553-12.177c9.57 3.578 20.778-2.747 25.033-14.128 4.255-11.38-.054-23.507-9.624-27.085-9.57-3.579-20.778 2.747-25.033 14.128-4.255 11.38.053 23.507 9.624 27.085z" fill="#009B3A" fill-rule="nonzero"/><g transform="rotate(23.5 -1962.506 6315.283)"><mask id="d" fill="#fff"><use xlink:href="#c"/></mask><path d="M32 70C14.603 70 .5 54.33.5 35S14.603 0 32 0s31.5 15.67 31.5 35S49.397 70 32 70zm0-13c10.217 0 18.5-9.85 18.5-22S42.217 13 32 13s-18.5 9.85-18.5 22S21.783 57 32 57z" fill="#009B3A" fill-rule="nonzero" mask="url(#d)"/></g><path fill="#009B3A" fill-rule="nonzero" d="M2375.418 1353.187l24.302 10.567-3.987 9.17-24.302-10.566z"/><path fill="#009B3A" fill-rule="nonzero" d="M2390.55 1359.767l9.17 3.987-13.956 32.097-9.17-3.987z"/><g fill="#009B3A" fill-rule="nonzero"><path d="M2409.23 1406.794l32.13-62.2 35.797 17.848c10.873 5.422 15.293 18.632 9.872 29.505-5.422 10.874-18.632 15.294-29.505 9.873l-25.058-12.494-11.601 23.268-11.635-5.8zm29.036-29.102l24.163 12.047a9 9 0 0 0 8.032-16.109l-24.163-12.047-8.032 16.109z"/><path d="M2462.479 1433.342c4.462-8.949 14.278-28.637.854-35.33l-17.003-8.478c19.688 9.816 9.872 29.505 5.41 38.454"/></g><path d="M2488.473 1447.06l54.832 31.023 6.402-11.315-44.388-25.114 8.863-15.666 34.814 19.697 5.91-10.444-34.815-19.697 6.894-12.185 41.777 23.636 6.402-11.315-52.222-29.545zM2590.603 1481.326c-3.76 5.904.052 12.482 8.485 17.855 8.434 5.373 14.178 5.18 16.605 1.39 7.656-12.02-36.608-29.547-22.965-50.498 11.763-17.998 31.889-3.991 39.48.845 7.59 4.835 19.778 17.343 10.299 31.757l-12.862-8.194c4.03-6.325-.396-12.406-7.143-16.704-6.537-4.164-11.847-6.065-15.742.05-6.524 9.775 36.857 28.223 23.56 49.097-9.807 15.392-26.868 8.673-38.254 1.419-9.699-6.179-24.191-20.747-14.746-35.48l13.283 8.463zM2665.696 1530.982c-4.065 5.7-.602 12.468 7.54 18.275 8.14 5.807 13.887 5.914 16.508 2.256 8.275-11.6-35.011-31.422-20.29-51.63 12.689-17.358 32.054-2.316 39.38 2.91 7.328 5.226 18.845 18.355 8.624 32.253l-12.415-8.856c4.355-6.106.253-12.41-6.26-17.055-6.309-4.5-11.512-6.677-15.722-.774-7.027 9.42 35.33 30.114 20.957 50.263-10.598 14.858-27.284 7.254-38.275-.585-9.362-6.678-23.072-21.985-12.869-36.203l12.822 9.146zM2736.719 1611.523c-13.615-10.83-14.898-31.873-2.865-47 12.034-15.129 32.826-18.613 46.44-7.783 13.616 10.83 14.898 31.873 2.865 47-12.033 15.128-32.825 18.613-46.44 7.783zm8.092-10.174c7.996 6.36 20.61 3.808 28.174-5.701s7.213-22.374-.783-28.734c-7.996-6.36-20.61-3.808-28.174 5.7-7.563 9.51-7.213 22.374.783 28.735z" fill="#009B3A" fill-rule="nonzero"/><g fill="#FFF" fill-rule="nonzero"><path d="M1500 1306.5l-9.734 29.958 14.98 4.867"/><path d="M1500 1306.5l9.734 29.958-14.98 4.867"/><path d="M1529.958 1328.266h-31.5v15.75"/><path d="M1529.958 1328.266l-25.484 18.515-9.257-12.742"/><path d="M1470.042 1328.266l25.484 18.515 9.257-12.742"/><path d="M1470.042 1328.266h31.5v15.75"/><g><path d="M1518.515 1363.484l-9.734-29.958-14.979 4.867"/><path d="M1518.515 1363.484l-25.484-18.515 9.258-12.742"/></g><g><path d="M1481.485 1363.484l25.484-18.515-9.258-12.742"/><path d="M1481.485 1363.484l9.734-29.958 14.979 4.867"/></g></g><g fill="#FFF" fill-rule="nonzero"><path d="M1565 1615.5l-9.734 29.958 14.98 4.867"/><path d="M1565 1615.5l9.734 29.958-14.98 4.867"/><path d="M1594.958 1637.266h-31.5v15.75"/><path d="M1594.958 1637.266l-25.484 18.515-9.257-12.742"/><path d="M1535.042 1637.266l25.484 18.515 9.257-12.742"/><path d="M1535.042 1637.266h31.5v15.75"/><g><path d="M1583.515 1672.484l-9.734-29.958-14.979 4.867"/><path d="M1583.515 1672.484l-25.484-18.515 9.258-12.742"/></g><g><path d="M1546.485 1672.484l25.484-18.515-9.258-12.742"/><path d="M1546.485 1672.484l9.734-29.958 14.979 4.867"/></g></g><g fill="#FFF" fill-rule="nonzero"><path d="M1475 1686.75l-8.112 24.965 12.483 4.056"/><path d="M1475 1686.75l8.112 24.965-12.483 4.056"/><path d="M1499.965 1704.888h-26.25v13.125"/><path d="M1499.965 1704.888l-21.236 15.43-7.715-10.619"/><path d="M1450.035 1704.888l21.236 15.43 7.715-10.619"/><path d="M1450.035 1704.888h26.25v13.125"/><g><path d="M1490.43 1734.237l-8.112-24.966-12.483 4.056"/><path d="M1490.43 1734.237l-21.237-15.43 7.714-10.618"/></g><g><path d="M1459.57 1734.237l21.237-15.43-7.714-10.618"/><path d="M1459.57 1734.237l8.112-24.966 12.483 4.056"/></g></g><g fill="#FFF" fill-rule="nonzero"><path d="M1637 1587l-4.635 14.266 7.133 2.317"/><path d="M1637 1587l4.635 14.266-7.133 2.317"/><path d="M1651.266 1597.365h-15v7.5"/><path d="M1651.266 1597.365l-12.135 8.817-4.409-6.068"/><path d="M1622.734 1597.365l12.135 8.817 4.409-6.068"/><path d="M1622.734 1597.365h15v7.5"/><g><path d="M1645.817 1614.135l-4.635-14.266-7.133 2.318"/><path d="M1645.817 1614.135l-12.135-8.817 4.408-6.067"/></g><g><path d="M1628.183 1614.135l12.135-8.817-4.408-6.067"/><path d="M1628.183 1614.135l4.635-14.266 7.133 2.318"/></g></g><g fill="#FFF" fill-rule="nonzero"><path d="M1718 1693.75l-8.112 24.965 12.483 4.056"/><path d="M1718 1693.75l8.112 24.965-12.483 4.056"/><path d="M1742.965 1711.888h-26.25v13.125"/><path d="M1742.965 1711.888l-21.236 15.43-7.715-10.619"/><path d="M1693.035 1711.888l21.236 15.43 7.715-10.619"/><path d="M1693.035 1711.888h26.25v13.125"/><g><path d="M1733.43 1741.237l-8.112-24.966-12.483 4.056"/><path d="M1733.43 1741.237l-21.237-15.43 7.714-10.618"/></g><g><path d="M1702.57 1741.237l21.237-15.43-7.714-10.618"/><path d="M1702.57 1741.237l8.112-24.966 12.483 4.056"/></g></g><g fill="#FFF" fill-rule="nonzero"><path d="M1696 1772l-6.49 19.972 9.987 3.245"/><path d="M1696 1772l6.49 19.972-9.987 3.245"/><path d="M1715.972 1786.51h-21v10.5"/><path d="M1715.972 1786.51l-16.99 12.344-6.17-8.495"/><path d="M1676.028 1786.51l16.99 12.344 6.17-8.495"/><path d="M1676.028 1786.51h21v10.5"/><g><path d="M1708.343 1809.99l-6.489-19.973-9.986 3.245"/><path d="M1708.343 1809.99l-16.989-12.344 6.172-8.495"/></g><g><path d="M1683.657 1809.99l16.989-12.344-6.172-8.495"/><path d="M1683.657 1809.99l6.489-19.973 9.986 3.245"/></g></g><g fill="#FFF" fill-rule="nonzero"><path d="M2328 1210.5l-9.734 29.958 14.98 4.867"/><path d="M2328 1210.5l9.734 29.958-14.98 4.867"/><path d="M2357.958 1232.266h-31.5v15.75"/><path d="M2357.958 1232.266l-25.484 18.515-9.257-12.742"/><path d="M2298.042 1232.266l25.484 18.515 9.257-12.742"/><path d="M2298.042 1232.266h31.5v15.75"/><g><path d="M2346.515 1267.484l-9.734-29.958-14.979 4.867"/><path d="M2346.515 1267.484l-25.484-18.515 9.258-12.742"/></g><g><path d="M2309.485 1267.484l25.484-18.515-9.258-12.742"/><path d="M2309.485 1267.484l9.734-29.958 14.979 4.867"/></g></g><g fill="#FFF" fill-rule="nonzero"><path d="M2615 1696.5l-9.734 29.958 14.98 4.867"/><path d="M2615 1696.5l9.734 29.958-14.98 4.867"/><path d="M2644.958 1718.266h-31.5v15.75"/><path d="M2644.958 1718.266l-25.484 18.515-9.257-12.742"/><path d="M2585.042 1718.266l25.484 18.515 9.257-12.742"/><path d="M2585.042 1718.266h31.5v15.75"/><g><path d="M2633.515 1753.484l-9.734-29.958-14.979 4.867"/><path d="M2633.515 1753.484l-25.484-18.515 9.258-12.742"/></g><g><path d="M2596.485 1753.484l25.484-18.515-9.258-12.742"/><path d="M2596.485 1753.484l9.734-29.958 14.979 4.867"/></g></g><g fill="#FFF" fill-rule="nonzero"><path d="M2717 1714l-6.49 19.972 9.987 3.245"/><path d="M2717 1714l6.49 19.972-9.987 3.245"/><path d="M2736.972 1728.51h-21v10.5"/><path d="M2736.972 1728.51l-16.99 12.344-6.17-8.495"/><path d="M2697.028 1728.51l16.99 12.344 6.17-8.495"/><path d="M2697.028 1728.51h21v10.5"/><g><path d="M2729.343 1751.99l-6.489-19.973-9.986 3.245"/><path d="M2729.343 1751.99l-16.989-12.344 6.172-8.495"/></g><g><path d="M2704.657 1751.99l16.989-12.344-6.172-8.495"/><path d="M2704.657 1751.99l6.489-19.973 9.986 3.245"/></g></g><g fill="#FFF" fill-rule="nonzero"><path d="M2645 1766.75l-8.112 24.965 12.483 4.056"/><path d="M2645 1766.75l8.112 24.965-12.483 4.056"/><path d="M2669.965 1784.888h-26.25v13.125"/><path d="M2669.965 1784.888l-21.236 15.43-7.715-10.619"/><path d="M2620.035 1784.888l21.236 15.43 7.715-10.619"/><path d="M2620.035 1784.888h26.25v13.125"/><g><path d="M2660.43 1814.237l-8.112-24.966-12.483 4.056"/><path d="M2660.43 1814.237l-21.237-15.43 7.714-10.618"/></g><g><path d="M2629.57 1814.237l21.237-15.43-7.714-10.618"/><path d="M2629.57 1814.237l8.112-24.966 12.483 4.056"/></g></g><g fill="#FFF" fill-rule="nonzero"><path d="M2468 1920.75l-8.112 24.965 12.483 4.056"/><path d="M2468 1920.75l8.112 24.965-12.483 4.056"/><path d="M2492.965 1938.888h-26.25v13.125"/><path d="M2492.965 1938.888l-21.236 15.43-7.715-10.619"/><path d="M2443.035 1938.888l21.236 15.43 7.715-10.619"/><path d="M2443.035 1938.888h26.25v13.125"/><g><path d="M2483.43 1968.237l-8.112-24.966-12.483 4.056"/><path d="M2483.43 1968.237l-21.237-15.43 7.714-10.618"/></g><g><path d="M2452.57 1968.237l21.237-15.43-7.714-10.618"/><path d="M2452.57 1968.237l8.112-24.966 12.483 4.056"/></g></g><g fill="#FFF" fill-rule="nonzero"><path d="M2467 2000l-6.49 19.972 9.987 3.245"/><path d="M2467 2000l6.49 19.972-9.987 3.245"/><path d="M2486.972 2014.51h-21v10.5"/><path d="M2486.972 2014.51l-16.99 12.344-6.17-8.495"/><path d="M2447.028 2014.51l16.99 12.344 6.17-8.495"/><path d="M2447.028 2014.51h21v10.5"/><g><path d="M2479.343 2037.99l-6.489-19.973-9.986 3.245"/><path d="M2479.343 2037.99l-16.989-12.344 6.172-8.495"/></g><g><path d="M2454.657 2037.99l16.989-12.344-6.172-8.495"/><path d="M2454.657 2037.99l6.489-19.973 9.986 3.245"/></g></g><g fill="#FFF" fill-rule="nonzero"><path d="M2541 1868l-6.49 19.972 9.987 3.245"/><path d="M2541 1868l6.49 19.972-9.987 3.245"/><path d="M2560.972 1882.51h-21v10.5"/><path d="M2560.972 1882.51l-16.99 12.344-6.17-8.495"/><path d="M2521.028 1882.51l16.99 12.344 6.17-8.495"/><path d="M2521.028 1882.51h21v10.5"/><g><path d="M2553.343 1905.99l-6.489-19.973-9.986 3.245"/><path d="M2553.343 1905.99l-16.989-12.344 6.172-8.495"/></g><g><path d="M2528.657 1905.99l16.989-12.344-6.172-8.495"/><path d="M2528.657 1905.99l6.489-19.973 9.986 3.245"/></g></g><g fill="#FFF" fill-rule="nonzero"><path d="M2600 1825.75l-8.112 24.965 12.483 4.056"/><path d="M2600 1825.75l8.112 24.965-12.483 4.056"/><path d="M2624.965 1843.888h-26.25v13.125"/><path d="M2624.965 1843.888l-21.236 15.43-7.715-10.619"/><path d="M2575.035 1843.888l21.236 15.43 7.715-10.619"/><path d="M2575.035 1843.888h26.25v13.125"/><g><path d="M2615.43 1873.237l-8.112-24.966-12.483 4.056"/><path d="M2615.43 1873.237l-21.237-15.43 7.714-10.618"/></g><g><path d="M2584.57 1873.237l21.237-15.43-7.714-10.618"/><path d="M2584.57 1873.237l8.112-24.966 12.483 4.056"/></g></g><g fill="#FFF" fill-rule="nonzero"><path d="M2465 1854l-6.49 19.972 9.987 3.245"/><path d="M2465 1854l6.49 19.972-9.987 3.245"/><path d="M2484.972 1868.51h-21v10.5"/><path d="M2484.972 1868.51l-16.99 12.344-6.17-8.495"/><path d="M2445.028 1868.51l16.99 12.344 6.17-8.495"/><path d="M2445.028 1868.51h21v10.5"/><g><path d="M2477.343 1891.99l-6.489-19.973-9.986 3.245"/><path d="M2477.343 1891.99l-16.989-12.344 6.172-8.495"/></g><g><path d="M2452.657 1891.99l16.989-12.344-6.172-8.495"/><path d="M2452.657 1891.99l6.489-19.973 9.986 3.245"/></g></g><g fill="#FFF" fill-rule="nonzero"><path d="M1820 1473.75l-8.112 24.965 12.483 4.056"/><path d="M1820 1473.75l8.112 24.965-12.483 4.056"/><path d="M1844.965 1491.888h-26.25v13.125"/><path d="M1844.965 1491.888l-21.236 15.43-7.715-10.619"/><path d="M1795.035 1491.888l21.236 15.43 7.715-10.619"/><path d="M1795.035 1491.888h26.25v13.125"/><g><path d="M1835.43 1521.237l-8.112-24.966-12.483 4.056"/><path d="M1835.43 1521.237l-21.237-15.43 7.714-10.618"/></g><g><path d="M1804.57 1521.237l21.237-15.43-7.714-10.618"/><path d="M1804.57 1521.237l8.112-24.966 12.483 4.056"/></g></g><g fill="#FFF" fill-rule="nonzero"><path d="M2300 1412l-6.49 19.972 9.987 3.245"/><path d="M2300 1412l6.49 19.972-9.987 3.245"/><path d="M2319.972 1426.51h-21v10.5"/><path d="M2319.972 1426.51l-16.99 12.344-6.17-8.495"/><path d="M2280.028 1426.51l16.99 12.344 6.17-8.495"/><path d="M2280.028 1426.51h21v10.5"/><g><path d="M2312.343 1449.99l-6.489-19.973-9.986 3.245"/><path d="M2312.343 1449.99l-16.989-12.344 6.172-8.495"/></g><g><path d="M2287.657 1449.99l16.989-12.344-6.172-8.495"/><path d="M2287.657 1449.99l6.489-19.973 9.986 3.245"/></g></g><g fill="#FFF" fill-rule="nonzero"><path d="M2100 1768.5l-9.734 29.958 14.98 4.867"/><path d="M2100 1768.5l9.734 29.958-14.98 4.867"/><path d="M2129.958 1790.266h-31.5v15.75"/><path d="M2129.958 1790.266l-25.484 18.515-9.257-12.742"/><path d="M2070.042 1790.266l25.484 18.515 9.257-12.742"/><path d="M2070.042 1790.266h31.5v15.75"/><g><path d="M2118.515 1825.484l-9.734-29.958-14.979 4.867"/><path d="M2118.515 1825.484l-25.484-18.515 9.258-12.742"/></g><g><path d="M2081.485 1825.484l25.484-18.515-9.258-12.742"/><path d="M2081.485 1825.484l9.734-29.958 14.979 4.867"/></g></g><g fill="#FFF" fill-rule="nonzero"><path d="M2185 1627.75l-8.112 24.965 12.483 4.056"/><path d="M2185 1627.75l8.112 24.965-12.483 4.056"/><path d="M2209.965 1645.888h-26.25v13.125"/><path d="M2209.965 1645.888l-21.236 15.43-7.715-10.619"/><path d="M2160.035 1645.888l21.236 15.43 7.715-10.619"/><path d="M2160.035 1645.888h26.25v13.125"/><g><path d="M2200.43 1675.237l-8.112-24.966-12.483 4.056"/><path d="M2200.43 1675.237l-21.237-15.43 7.714-10.618"/></g><g><path d="M2169.57 1675.237l21.237-15.43-7.714-10.618"/><path d="M2169.57 1675.237l8.112-24.966 12.483 4.056"/></g></g><g fill="#FFF" fill-rule="nonzero"><path d="M2100 1561.75l-8.112 24.965 12.483 4.056"/><path d="M2100 1561.75l8.112 24.965-12.483 4.056"/><path d="M2124.965 1579.888h-26.25v13.125"/><path d="M2124.965 1579.888l-21.236 15.43-7.715-10.619"/><path d="M2075.035 1579.888l21.236 15.43 7.715-10.619"/><path d="M2075.035 1579.888h26.25v13.125"/><g><path d="M2115.43 1609.237l-8.112-24.966-12.483 4.056"/><path d="M2115.43 1609.237l-21.237-15.43 7.714-10.618"/></g><g><path d="M2084.57 1609.237l21.237-15.43-7.714-10.618"/><path d="M2084.57 1609.237l8.112-24.966 12.483 4.056"/></g></g><g fill="#FFF" fill-rule="nonzero"><path d="M2026 1633l-6.49 19.972 9.987 3.245"/><path d="M2026 1633l6.49 19.972-9.987 3.245"/><path d="M2045.972 1647.51h-21v10.5"/><path d="M2045.972 1647.51l-16.99 12.344-6.17-8.495"/><path d="M2006.028 1647.51l16.99 12.344 6.17-8.495"/><path d="M2006.028 1647.51h21v10.5"/><g><path d="M2038.343 1670.99l-6.489-19.973-9.986 3.245"/><path d="M2038.343 1670.99l-16.989-12.344 6.172-8.495"/></g><g><path d="M2013.657 1670.99l16.989-12.344-6.172-8.495"/><path d="M2013.657 1670.99l6.489-19.973 9.986 3.245"/></g></g><g fill="#FFF" fill-rule="nonzero"><path d="M2063 1690l-4.635 14.266 7.133 2.317"/><path d="M2063 1690l4.635 14.266-7.133 2.317"/><path d="M2077.266 1700.365h-15v7.5"/><path d="M2077.266 1700.365l-12.135 8.817-4.409-6.068"/><path d="M2048.734 1700.365l12.135 8.817 4.409-6.068"/><path d="M2048.734 1700.365h15v7.5"/><g><path d="M2071.817 1717.135l-4.635-14.266-7.133 2.318"/><path d="M2071.817 1717.135l-12.135-8.817 4.408-6.067"/></g><g><path d="M2054.183 1717.135l12.135-8.817-4.408-6.067"/><path d="M2054.183 1717.135l4.635-14.266 7.133 2.318"/></g></g><g fill="#FFF" fill-rule="nonzero"><path d="M2320 1938.75l-8.112 24.965 12.483 4.056"/><path d="M2320 1938.75l8.112 24.965-12.483 4.056"/><path d="M2344.965 1956.888h-26.25v13.125"/><path d="M2344.965 1956.888l-21.236 15.43-7.715-10.619"/><path d="M2295.035 1956.888l21.236 15.43 7.715-10.619"/><path d="M2295.035 1956.888h26.25v13.125"/><g><path d="M2335.43 1986.237l-8.112-24.966-12.483 4.056"/><path d="M2335.43 1986.237l-21.237-15.43 7.714-10.618"/></g><g><path d="M2304.57 1986.237l21.237-15.43-7.714-10.618"/><path d="M2304.57 1986.237l8.112-24.966 12.483 4.056"/></g></g><g fill="#FFF" fill-rule="nonzero"><path d="M2383 1879l-6.49 19.972 9.987 3.245"/><path d="M2383 1879l6.49 19.972-9.987 3.245"/><path d="M2402.972 1893.51h-21v10.5"/><path d="M2402.972 1893.51l-16.99 12.344-6.17-8.495"/><path d="M2363.028 1893.51l16.99 12.344 6.17-8.495"/><path d="M2363.028 1893.51h21v10.5"/><g><path d="M2395.343 1916.99l-6.489-19.973-9.986 3.245"/><path d="M2395.343 1916.99l-16.989-12.344 6.172-8.495"/></g><g><path d="M2370.657 1916.99l16.989-12.344-6.172-8.495"/><path d="M2370.657 1916.99l6.489-19.973 9.986 3.245"/></g></g><g fill="#FFF" fill-rule="nonzero"><path d="M2262 1861l-6.49 19.972 9.987 3.245"/><path d="M2262 1861l6.49 19.972-9.987 3.245"/><path d="M2281.972 1875.51h-21v10.5"/><path d="M2281.972 1875.51l-16.99 12.344-6.17-8.495"/><path d="M2242.028 1875.51l16.99 12.344 6.17-8.495"/><path d="M2242.028 1875.51h21v10.5"/><g><path d="M2274.343 1898.99l-6.489-19.973-9.986 3.245"/><path d="M2274.343 1898.99l-16.989-12.344 6.172-8.495"/></g><g><path d="M2249.657 1898.99l16.989-12.344-6.172-8.495"/><path d="M2249.657 1898.99l6.489-19.973 9.986 3.245"/></g></g><g fill="#FFF" fill-rule="nonzero"><path d="M1805 1828.5l-9.734 29.958 14.98 4.867"/><path d="M1805 1828.5l9.734 29.958-14.98 4.867"/><path d="M1834.958 1850.266h-31.5v15.75"/><path d="M1834.958 1850.266l-25.484 18.515-9.257-12.742"/><path d="M1775.042 1850.266l25.484 18.515 9.257-12.742"/><path d="M1775.042 1850.266h31.5v15.75"/><g><path d="M1823.515 1885.484l-9.734-29.958-14.979 4.867"/><path d="M1823.515 1885.484l-25.484-18.515 9.258-12.742"/></g><g><path d="M1786.485 1885.484l25.484-18.515-9.258-12.742"/><path d="M1786.485 1885.484l9.734-29.958 14.979 4.867"/></g></g><g fill="#FFF" fill-rule="nonzero"><path d="M2100 2034.5l-3.245 9.986 4.993 1.622"/><path d="M2100 2034.5l3.245 9.986-4.993 1.622"/><path d="M2109.986 2041.755h-10.5v5.25"/><path d="M2109.986 2041.755l-8.495 6.172-3.085-4.247"/><path d="M2090.014 2041.755l8.495 6.172 3.085-4.247"/><path d="M2090.014 2041.755h10.5v5.25"/><g><path d="M2106.172 2053.495l-3.245-9.986-4.993 1.622"/><path d="M2106.172 2053.495l-8.495-6.172 3.086-4.247"/></g><g><path d="M2093.828 2053.495l8.495-6.172-3.086-4.247"/><path d="M2093.828 2053.495l3.245-9.986 4.993 1.622"/></g></g></g></svg>