<svg viewBox="0 0 670 500" xmlns="http://www.w3.org/2000/svg"><g fill-rule="nonzero" fill="none"><path fill="#0073CF" d="M0 0h669.47v500H0z"/><path d="M367.07 177.65c-.028 17.998-14.635 32.568-32.633 32.55-17.998-.018-32.576-14.619-32.567-32.617.01-17.998 14.602-32.583 32.6-32.583a32.6 32.6 0 0 1 32.62 32.62l-.02.03z" fill="#FECB00"/><path d="M281.77 56.27c-55 1-111.62 133.22 20.53 200.23v187.23h16.85V252.55c-14-4.58-61.79-35.45-61.79-75.9 0-16.92 10.57-44.82 30.72-57.68 12.33-7.87 24.45-16 24.45-32.6 0-16.608-13.452-30.078-30.06-30.1h-.7zm103.76 0c-16.23.54-29.108 13.851-29.11 30.09 0 16.61 12.12 24.73 24.45 32.6 20.15 12.86 30.72 40.76 30.72 57.68 0 40.45-47.84 71.32-61.79 75.9v191.19h16.85V256.51c132.66-67.28 75.05-200.24 19.82-200.24h-1 .06zm-191.22 47c-14.7.63-24.73 11.4-24.73 28.21 0 31.2 54.1 113.24 109.64 133.78v178.47h16.81v-186c-30.56-17.02-55.56-39.02-67.56-64.58-11.3-24.23-11.48-41.28-11.48-50.2 0-12.07 1.06-11.08 1.06-18.73 0-19.29-16.67-20.92-23.43-20.92h-.35l.04-.03zm278.8 0c-7.34.21-22.26 2.69-22.26 20.92 0 7.65 1.06 6.66 1.06 18.73 0 8.92-.18 26-11.48 50.2-11.92 25.56-37 47.56-67.51 64.62v186h16.81V265.28c55.54-20.53 109.64-102.58 109.64-133.78 0-16.94-10.19-27.74-25.08-28.21h-1.18v-.02zm-316.73 47.36c-8.09.41-15.63 6.51-15.63 17.87 0 3.74-.26 8.95 9.84 21.39 28.65 35.32 91.54 78.55 105.52 81.66v172.18h16.85V266.54c-32.38-14.31-79-60-99.33-105a17.87 17.87 0 0 0-17.24-10.89l-.01-.02zm354.46 0a18 18 0 0 0-15.52 10.89c-20.36 45.06-67 90.7-99.33 105v177.21h16.85V271.55c14-3.11 76.87-46.34 105.52-81.66 10.1-12.45 9.84-17.66 9.84-21.39 0-12.17-8.65-18.3-17.36-17.87zM136.2 189.38c-8 .56-13.64 9.11-13.64 14.22 0 18.15 83.18 72.9 107.76 75.47v164.66h19.51V272.81c-19.13-8.39-80.36-52.68-98.36-74.81-5.48-6.72-10.74-8.93-15.24-8.62h-.03zm394.9 0c-4.12.28-8.77 2.7-13.6 8.62-18 22.12-79.26 66.42-98.39 74.8v170.93h19.51V279.08c24.58-2.57 107.76-57.32 107.76-75.47 0-5.46-6.38-14.82-15.28-14.22v-.01zm-205.68 63.76v190.59h18.1V253.14h-18.1z" fill="#FFF"/></g></svg>