<svg viewBox="0 0 24 16" xmlns="http://www.w3.org/2000/svg"><g fill-rule="nonzero" fill="none"><path fill="#D52B1E" d="M24 16H0V0h24z"/><path fill="#FFF" d="M8 8h16V0H0z"/><path fill="#0039A6" d="M8 8H0V0h8z"/><g fill="#FFF"><path d="M4 2l-.618 1.902.951.31z"/><path d="M4 2l.618 1.902-.951.31z"/><g><path d="M5.902 3.382h-2v1z"/><path d="M5.902 3.382L4.284 4.558l-.588-.81z"/></g></g><g fill="#FFF"><path d="M2.098 3.382l1.618 1.176.588-.81z"/><path d="M2.098 3.382h2v1z"/></g><g fill="#FFF"><path d="M5.176 5.618l-.618-1.902-.952.309z"/><path d="M5.176 5.618L3.558 4.442l.587-.809z"/><g><path d="M2.824 5.618l1.618-1.176-.587-.809z"/><path d="M2.824 5.618l.618-1.902.952.309z"/></g></g></g></svg>