<svg viewBox="0 0 38 20" xmlns="http://www.w3.org/2000/svg"><g fill-rule="nonzero" fill="none"><path fill="#75B2DD" d="M0 0h38v20H0z"/><g fill="#FFF"><path d="M19 2l-.618 1.902.951.31"/><path d="M19 2l.618 1.902-.951.31"/><path d="M20.902 3.382h-2v1"/><path d="M20.902 3.382l-1.618 1.176-.588-.81"/><path d="M20.176 5.618l-.618-1.902-.952.309"/><path d="M20.176 5.618l-1.618-1.176.587-.809"/><g><path d="M17.824 5.618l1.618-1.176-.587-.809"/><path d="M17.824 5.618l.618-1.902.952.309"/></g><g><path d="M17.098 3.382l1.618 1.176.588-.81"/><path d="M17.098 3.382h2v1"/></g></g><g fill="#FFF"><path d="M27 10l-1.902-.618-.31.951"/><path d="M27 10l-1.902.618-.31-.951"/><path d="M25.618 11.902v-2h-1"/><path d="M25.618 11.902l-1.176-1.618.81-.588"/><path d="M23.382 11.176l1.902-.618-.309-.952"/><path d="M23.382 11.176l1.176-1.618.809.587"/><g><path d="M23.382 8.824l1.176 1.618.809-.587"/><path d="M23.382 8.824l1.902.618-.309.952"/></g><g><path d="M25.618 8.098l-1.176 1.618.81.588"/><path d="M25.618 8.098v2h-1"/></g></g><g fill="#FFF"><path d="M19 18l.618-1.902-.951-.31"/><path d="M19 18l-.618-1.902.951-.31"/><path d="M17.098 16.618h2v-1"/><path d="M17.098 16.618l1.618-1.176.588.81"/><path d="M17.824 14.382l.618 1.902.952-.309"/><path d="M17.824 14.382l1.618 1.176-.587.809"/><g><path d="M20.176 14.382l-1.618 1.176.587.809"/><path d="M20.176 14.382l-.618 1.902-.952-.309"/></g><g><path d="M20.902 16.618l-1.618-1.176-.588.81"/><path d="M20.902 16.618h-2v-1"/></g></g><g fill="#FFF"><path d="M11 10l1.902.618.31-.951"/><path d="M11 10l1.902-.618.31.951"/><path d="M12.382 8.098v2h1"/><path d="M12.382 8.098l1.176 1.618-.81.588"/><path d="M14.618 8.824l-1.902.618.309.952"/><path d="M14.618 8.824l-1.176 1.618-.809-.587"/><g><path d="M14.618 11.176l-1.176-1.618-.809.587"/><path d="M14.618 11.176l-1.902-.618.309-.952"/></g><g><path d="M12.382 11.902l1.176-1.618-.81-.588"/><path d="M12.382 11.902v-2h1"/></g></g></g></svg>