<svg width="12" height="6" viewBox="0 0 12 6" xmlns="http://www.w3.org/2000/svg"><g fill-rule="nonzero" fill="none"><path fill="#CE1126" d="M0 0h4v6H0z"/><path fill="#FCD116" d="M4 0h8v3H4z"/><path fill="#009E49" d="M4 3h8v3H4z"/><g fill="#000"><path d="M2 2l-.309.951.476.155"/><path d="M2 2l.309.951-.476.155"/></g><g fill="#000"><path d="M2.951 2.691h-1v.5"/><path d="M2.951 2.691l-.809.588-.294-.405"/></g><g fill="#000"><path d="M2.588 3.809l-.31-.951-.475.154"/><path d="M2.588 3.809l-.81-.588.295-.404"/></g><g fill="#000"><path d="M1.412 3.809l.81-.588-.295-.404"/><path d="M1.412 3.809l.31-.951.475.154"/></g><g fill="#000"><path d="M1.049 2.691l.809.588.294-.405"/><path d="M1.049 2.691h1v.5"/></g></g></svg>