<svg viewBox="0 0 240 160" xmlns="http://www.w3.org/2000/svg"><g fill-rule="nonzero" fill="none"><path fill="#FFF" d="M0 0h240v160H0z"/><path fill="#000" d="M0 0h240v48H0z"/><path fill="#060" d="M0 112h240v48H0z"/><path d="M91.421 127.5l1.732 1 46.713-80.909c2.732-.732 4.232-3.33 5.732-5.928 1-1.732 5-8.66 6.734-17.663-6.93 6.003-10.93 12.93-11.93 14.663-1.5 2.598-3 5.196-2.268 7.928l-46.713 80.91z" fill="#000" stroke="#000"/><path d="M91.421 127.5l1.732 1 46.713-80.909c2.732-.732 4.232-3.33 5.732-5.928 1-1.732 5-8.66 6.734-17.663-6.93 6.003-10.93 12.93-11.93 14.663-1.5 2.598-3 5.196-2.268 7.928l-46.713 80.91z" fill="#FFF"/><path d="M148.579 127.5l-1.732 1-46.713-80.909c-2.732-.732-4.232-3.33-5.732-5.928-1-1.732-5-8.66-6.734-17.663 6.93 6.003 10.93 12.93 11.93 14.663 1.5 2.598 3 5.196 2.268 7.928l46.713 80.91z" fill="#000" stroke="#000"/><path d="M148.579 127.5l-1.732 1-46.713-80.909c-2.732-.732-4.232-3.33-5.732-5.928-1-1.732-5-8.66-6.734-17.663 6.93 6.003 10.93 12.93 11.93 14.663 1.5 2.598 3 5.196 2.268 7.928l46.713 80.91z" fill="#FFF"/><path d="M0 56v48h101c3 8 13 24 19 24s16-16 19-24h101V56H139c-3-8-13-24-19-24s-16 16-19 24H0z" fill="#B00"/><path d="M139 104c3-8 5-16 5-24s-2-16-5-24c-3 8-5 16-5 24s2 16 5 24" fill="#000"/><g fill="#000"><path d="M101 104c-3-8-5-16-5-24s2-16 5-24c3 8 5 16 5 24s-2 16-5 24"/></g><g transform="translate(115 32)" fill="#FFF"><ellipse cx="5" cy="48" rx="4" ry="6"/><path d="M6 53.85s4 8 4 21-4 21-4 21v-42zM4 42.15s-4-8-4-21 4-21 4-21v42zM4 53.85s-4 8-4 21 4 21 4 21v-42zM6 42.15s4-8 4-21-4-21-4-21v42z"/></g></g></svg>