<svg viewBox="0 0 600 300" xmlns="http://www.w3.org/2000/svg"><g fill="none" fill-rule="evenodd"><path fill="#CE1126" fill-rule="nonzero" d="M0 0h600v300H0z"/><g transform="translate(222 16)"><path d="M127.39 125.29c8.76 2.35 22.01 1.76 27.96 8.71-8.75-2.35-19.55 11.81-27.96 8.71 7.43 5.2-108.04 0-98.78 0C19.85 140.36 6.6 140.95.65 134c8.75 2.35 19.55-11.81 27.96-8.71-7.43-5.2-20.31-9.23-23.3-17.75 7.43 5.2 22.54-4.44 29.26 1.38-5.2-7.42-16.07-15.57-15.83-24.64 5.2 7.43 22.71 3.45 27.02 11.3-2.34-8.76-9.41-20.05-6.44-28.57 2.35 8.758 19.98 10.933 21.53 19.86.79-9.031-2.4-22.103 3.72-29.049C63.78 66.854 79.7 74.918 78 83.847c3.83-8.217 5.95-21.492 13.43-26.026-3.83 8.218 8.67 21.199 3.72 29.049 6.41-6.409 12.6-18.286 21.53-19.86-6.41 6.411.42 22.74-6.44 28.57 8.21-3.83 17.91-12.877 27.02-11.3-8.22 3.83-7.41 21.54-15.83 24.64 9.04-.79 21.17-5.91 29.26-1.38-9.03.79-14.04 17.75-23.3 17.75z" stroke="#BD9C08" stroke-width="1.5" fill="#FCD116" fill-rule="nonzero"/><path stroke="#BD9C08" stroke-width="1.5" fill="#FCD116" fill-rule="nonzero" stroke-linejoin="round" d="M36.36 134L4.77 121.09l34.1-1.33L13.6 96.82l32.5 10.42-15.9-30.198L57.18 97.94l-4.61-33.809L70.77 93 78 59.647 85.23 93l18.2-28.869-4.61 33.809 26.97-20.898-15.89 30.198 32.49-10.42-25.26 22.94 34.09 1.33L119.64 134l31.58 12.91H4.77z"/><circle stroke="#BD9C08" stroke-width="1.8" fill="#FCD116" fill-rule="nonzero" cx="78" cy="134" r="41.358"/><path d="M91.6 33.862l22.18.147c.14-.938-1.9-2.805-3.65-3.078-5.61-.882-9.82.936-16.64 1.006l-1.89 1.925z" stroke="#BD9C08" stroke-width="1.2" fill="#FCD116" fill-rule="nonzero"/><path d="M47.43 28.643c5.21 6.58 15.31 11.153 24.95 11.213 13 .08 27.42-10.441 44.85-13.662l-56.91-1.172c-7.37-5.045-12.96-4.405-16.77-1.277l-10.88.329c-1.54.839 1.27 4.343 3.55 4.471l11.21.098z" stroke="#BD9C08" stroke-width="1.2" fill="#FCD116" fill-rule="nonzero"/><path d="M73.16 24.868c-2.07-9.518-9.71-13.62-18.89-14.837C43.66 8.625 19.25 7.184 3.03 2.526c7.02 6.901 21.71 10.346 31.92 11.904 10.81 1.65 21.33 4.054 29.67 10.351l8.54.087z" stroke="#BD9C08" stroke-width="1.2" fill="#FCD116" fill-rule="nonzero"/><path d="M66.27 31.221c3.39 4.354 8.65 4.108 14.31.309 5.64-3.786 11.77-14.447 14.73-14.622C116 15.706 141.03 6.972 152.97.227 137.83 2.37 122.83 4.8 107.56 4.86c-26.05.104-29.13 11.968-39.75 20.286" stroke="#BD9C08" stroke-width="1.2" fill="#FCD116" fill-rule="nonzero" stroke-linecap="round"/><path d="M70.31 26.103c5.55-3.536 10.06-8.151 15.26-12.006 8.61-6.382 18.55-6.569 29.23-6.701 9.46-.116 26.04-4.069 35.04-6.178" stroke="#BD9C08" stroke-width="1.2" stroke-linecap="round"/><path d="M64.53 24.436c-1.63-8.511-9.6-11.065-19.66-12.594-10.95-1.663-22.12-2.589-33.04-5.607-2.71-.748-5.23-2.07-7.85-3.105" stroke="#BD9C08" stroke-width="1.2"/><path d="M68.02 36.983c10.28.754 17.91-2.336 26.68-6.706m-62.07-4.446h12.96" stroke="#BD9C08" stroke-width="1.2" stroke-linecap="round"/><circle fill="#BD9C08" fill-rule="nonzero" cx="49.75" cy="24.437" r="1.62"/></g><path fill="#003F87" fill-rule="nonzero" d="M0 165h600v135H0z"/><path d="M0 257.14c20 0 40 12.86 60 12.86s40-12.86 60-12.86S160 270 180 270s40-12.86 60-12.86S280 270 300 270s40-12.86 60-12.86S400 270 420 270s40-12.86 60-12.86S520 270 540 270s40-12.86 60-12.86v-21.43c-20 0-40 12.86-60 12.86s-40-12.86-60-12.86-40 12.86-60 12.86-40-12.86-60-12.86-40 12.86-60 12.86-40-12.86-60-12.86-40 12.86-60 12.86-40-12.86-60-12.86-40 12.86-60 12.86-40-12.86-60-12.86v21.43zM0 214.283c20 0 40 12.86 60 12.86s40-12.86 60-12.86 40 12.86 60 12.86 40-12.86 60-12.86 40 12.86 60 12.86 40-12.86 60-12.86 40 12.86 60 12.86 40-12.86 60-12.86 40 12.86 60 12.86 40-12.86 60-12.86v-21.43c-20 0-40 12.86-60 12.86s-40-12.86-60-12.86-40 12.86-60 12.86-40-12.86-60-12.86-40 12.86-60 12.86-40-12.86-60-12.86-40 12.86-60 12.86-40-12.86-60-12.86-40 12.86-60 12.86-40-12.86-60-12.86v21.43zM0 171.426c20 0 40 12.86 60 12.86s40-12.86 60-12.86 40 12.86 60 12.86 40-12.86 60-12.86 40 12.86 60 12.86 40-12.86 60-12.86 40 12.86 60 12.86 40-12.86 60-12.86 40 12.86 60 12.86 40-12.86 60-12.86v-21.43c-20 0-40 12.86-60 12.86s-40-12.86-60-12.86-40 12.86-60 12.86-40-12.86-60-12.86-40 12.86-60 12.86-40-12.86-60-12.86-40 12.86-60 12.86-40-12.86-60-12.86-40 12.86-60 12.86-40-12.86-60-12.86v21.43z" fill="#FFF" fill-rule="nonzero"/></g></svg>