<svg width="72" height="48" viewBox="0 0 72 48" xmlns="http://www.w3.org/2000/svg"><g fill-rule="nonzero" fill="none"><path fill="#FFF" d="M0 0h72v48H0z"/><g transform="rotate(-56.31 22.131 2.578)"><g fill="#000" stroke="#000" stroke-width="2"><path d="M6 1h12M6 4h12M6 7h12M6 45h12M6 48h12M6 51h12"/></g><path d="M12 43v10" stroke="#FFF" fill="#000"/><circle fill="#C60C30" cx="12" cy="26" r="12"/><path d="M12 14a6 6 0 1 0 0 12 6 6 0 1 1 0 12C5.373 38 0 32.627 0 26s5.373-12 12-12z" fill="#003478"/></g><g fill="#000"><g stroke="#000" stroke-width="2"><path d="M18.527 42.86l-6.656-9.985m9.152 8.32l-6.656-9.984m9.152 8.32l-6.656-9.984M55.137 18.453l-6.656-9.985m9.152 8.32l-6.656-9.984m9.152 8.32L53.473 5.14"/></g><path d="M16.447 37.035l2.496-1.664m31.202-20.8l2.912-1.942m2.496-1.664L58.05 9.3" stroke="#FFF"/></g></g></svg>