<svg width="144" height="96" viewBox="0 0 144 96" xmlns="http://www.w3.org/2000/svg"><g fill-rule="nonzero" fill="none"><path fill="#CD2A3E" d="M0 0h144v96H0z"/><path fill="#006233" d="M0 14.4h144v67.2H0z"/><path d="M102 30.92c-.08 16.496-13.488 29.84-30 29.84S42.08 47.416 42 30.92a30.973 30.973 0 0 0-1.008 7.84c0 17.12 13.872 31.008 31.008 31.008s31.008-13.872 31.008-31.008A30.88 30.88 0 0 0 102 30.92z" fill="#FFC400"/><path fill="#FFC400" d="M72 18.76l-2.694 8.291h-8.719l7.053 5.126-2.693 8.291L72 35.344l7.053 5.124-2.693-8.291 7.053-5.125h-8.719z"/></g></svg>