<svg viewBox="0 0 450 300" xmlns="http://www.w3.org/2000/svg"><g fill-rule="nonzero" fill="none"><path fill="#000" d="M0 0h450v300H0z"/><g fill="#CE1126" transform="translate(0 -17)"><circle cx="225" cy="131" r="64.5"/><path d="M0 117h450v100H0zM225 29c-2.2 0-3 3.3-3 6.5 0 8 1 12 3 23.5 2.04-11.5 3-15.6 3-23.5 0-3.3-1-6.5-3-6.5M233.89 29.388c-2.192-.192-3.276 3.026-3.555 6.214-.697 7.97-.05 12.041.94 23.672 3.035-11.278 4.348-15.28 5.037-23.15.288-3.287-.43-6.562-2.422-6.736"/><g><path d="M242.712 30.55c-2.166-.382-3.527 2.729-4.083 5.88-1.39 7.878-1.099 11.991-1.126 23.664 4.006-10.971 5.663-14.842 7.035-22.622.573-3.25.144-6.575-1.826-6.922M251.4 32.476c-2.125-.57-3.752 2.41-4.58 5.502-2.071 7.727-2.14 11.85-3.185 23.475 4.947-10.58 6.935-14.292 8.98-21.922.854-3.188.716-6.538-1.215-7.055"/></g><g><path d="M259.886 35.151c-2.067-.752-3.948 2.075-5.042 5.082-2.736 7.518-3.165 11.619-5.219 23.11 5.85-10.11 8.155-13.634 10.857-21.058 1.129-3.1 1.283-6.45-.596-7.134M268.107 38.557c-1.994-.93-4.114 1.723-5.466 4.623-3.38 7.25-4.165 11.298-7.212 22.566 6.708-9.56 9.311-12.87 12.65-20.03 1.395-2.991 1.84-6.314.028-7.16"/><g><path d="M276 42.665c-1.905-1.1-4.248 1.358-5.848 4.13-4 6.928-5.134 10.892-9.152 21.851 7.517-8.94 10.398-12.01 14.348-18.851 1.65-2.858 2.384-6.13.652-7.13M283.505 47.446c-1.802-1.261-4.35.983-6.186 3.604-4.589 6.553-6.064 10.404-11.021 20.971 8.267-8.25 11.405-11.058 15.936-17.53 1.893-2.702 2.91-5.897 1.27-7.045"/></g></g><g><path d="M290.564 52.863c-1.685-1.414-4.419.6-6.476 3.051-5.142 6.129-6.947 9.836-12.807 19.93 8.954-7.497 12.325-10.021 17.403-16.073 2.122-2.528 3.412-5.622 1.88-6.908M297.125 58.875c-1.556-1.556-4.455.212-6.718 2.475-5.656 5.657-7.778 9.192-14.495 18.738 9.574-6.689 13.152-8.91 18.738-14.495 2.333-2.334 3.89-5.304 2.475-6.718"/><g><path d="M303.137 65.436c-1.415-1.686-4.457-.177-6.908 1.88-6.128 5.142-8.55 8.48-16.074 17.403 10.121-5.829 13.879-7.73 19.93-12.807 2.529-2.121 4.337-4.944 3.052-6.476M308.554 72.495c-1.262-1.802-4.424-.564-7.046 1.271-6.553 4.589-9.256 7.702-17.53 15.936 10.591-4.925 14.5-6.49 20.972-11.021 2.703-1.893 4.75-4.547 3.604-6.186"/></g><g><path d="M313.335 80c-1.1-1.905-4.358-.948-7.13.652-6.928 4-9.892 6.866-18.851 14.348 10.98-3.983 15.01-5.202 21.851-9.152 2.858-1.65 5.13-4.116 4.13-5.848M317.443 87.893c-.93-1.994-4.258-1.324-7.158.028-7.25 3.381-10.454 5.978-20.03 12.65 11.284-3.01 15.405-3.873 22.565-7.212 2.991-1.395 5.469-3.653 4.623-5.466"/><g><path d="M320.849 96.114c-.753-2.067-4.127-1.69-7.134-.596-7.518 2.736-10.935 5.044-21.057 10.857 11.504-2.017 15.685-2.517 23.109-5.219 3.1-1.129 5.766-3.163 5.082-5.042M323.524 104.6c-.569-2.125-3.964-2.043-7.055-1.215-7.727 2.07-11.332 4.072-21.922 8.98 11.636-1.006 15.845-1.14 23.475-3.184 3.188-.855 6.02-2.649 5.502-4.58"/></g></g></g><g><path d="M124.55 113.288c-.382 2.166 2.729 3.527 5.88 4.083 7.878 1.39 11.991 1.099 23.664 1.126-10.971-4.006-14.842-5.663-22.622-7.035-3.25-.573-6.575-.144-6.922 1.826M126.476 104.6c-.57 2.125 2.41 3.752 5.502 4.58 7.727 2.071 11.85 2.14 23.475 3.185-10.58-4.947-14.292-6.935-21.922-8.98-3.188-.854-6.538-.716-7.055 1.215"/><g><path d="M129.151 96.114c-.752 2.067 2.075 3.948 5.082 5.042 7.518 2.736 11.619 3.165 23.11 5.219-10.11-5.85-13.634-8.155-21.058-10.857-3.1-1.129-6.45-1.283-7.134.596M132.557 87.893c-.93 1.994 1.723 4.114 4.623 5.466 7.25 3.38 11.298 4.165 22.566 7.212-9.56-6.708-12.87-9.311-20.03-12.65-2.991-1.395-6.314-1.84-7.16-.028"/></g><g><path d="M136.665 80c-1.1 1.905 1.358 4.248 4.13 5.848 6.928 4 10.892 5.134 21.851 9.152-8.94-7.517-12.01-10.398-18.851-14.348-2.858-1.65-6.13-2.384-7.13-.652M141.446 72.495c-1.261 1.802.983 4.35 3.604 6.186 6.553 4.589 10.404 6.064 20.971 11.021-8.25-8.267-11.058-11.405-17.53-15.936-2.702-1.893-5.897-2.91-7.045-1.27"/><g><path d="M146.863 65.436c-1.414 1.685.6 4.419 3.051 6.476 6.129 5.142 9.836 6.947 19.93 12.807-7.497-8.954-10.021-12.325-16.073-17.403-2.528-2.122-5.622-3.412-6.908-1.88M152.875 58.875c-1.556 1.556.212 4.455 2.475 6.718 5.657 5.656 9.192 7.778 18.738 14.495-6.689-9.574-8.91-13.152-14.495-18.738-2.334-2.333-5.304-3.89-6.718-2.475"/></g></g><g><path d="M159.436 52.863c-1.686 1.415-.177 4.457 1.88 6.908 5.142 6.128 8.48 8.55 17.403 16.074-5.829-10.121-7.73-13.879-12.807-19.93-2.121-2.529-4.944-4.337-6.476-3.052M166.495 47.446c-1.802 1.262-.564 4.424 1.271 7.046 4.589 6.553 7.702 9.256 15.936 17.53-4.925-10.591-6.49-14.5-11.021-20.972-1.893-2.703-4.547-4.75-6.186-3.604"/><g><path d="M174 42.665c-1.905 1.1-.948 4.358.652 7.13 4 6.928 6.866 9.892 14.348 18.851-3.983-10.98-5.202-15.01-9.152-21.851-1.65-2.858-4.116-5.13-5.848-4.13M181.893 38.557c-1.994.93-1.324 4.258.028 7.158 3.381 7.25 5.978 10.454 12.65 20.03-3.01-11.284-3.873-15.405-7.212-22.565-1.395-2.991-3.653-5.469-5.466-4.623"/></g><g><path d="M190.114 35.151c-2.067.753-1.69 4.127-.596 7.134 2.736 7.518 5.044 10.935 10.857 21.057-2.017-11.504-2.517-15.685-5.219-23.109-1.129-3.1-3.163-5.766-5.042-5.082M198.6 32.476c-2.125.569-2.043 3.964-1.215 7.055 2.07 7.727 4.072 11.332 8.98 21.922-1.006-11.636-1.14-15.845-3.184-23.475-.855-3.188-2.649-6.02-4.58-5.502"/><g><path d="M207.288 30.55c-2.167.382-2.381 3.77-1.826 6.922 1.39 7.878 3.069 11.644 7.035 22.622.012-11.68.246-15.884-1.126-23.664-.573-3.25-2.113-6.228-4.083-5.88M216.11 29.388c-2.192.192-2.7 3.55-2.422 6.737.697 7.97 2.042 11.867 5.037 23.149 1.03-11.634 1.629-15.802.94-23.672-.287-3.288-1.562-6.388-3.555-6.214"/></g></g></g></g></g><path fill="#000" d="M0 92.5h450v7.5H0z"/><path fill="#339E35" d="M0 200h450v100H0z"/></g></svg>