<svg viewBox="0 0 72 88" xmlns="http://www.w3.org/2000/svg"><g fill-rule="nonzero" fill="none"><path d="M3 42.574h60L3 5v80h60L3 25z" fill="#DC143C" stroke="#003893" stroke-width="5.165"/><path fill="#DC143C" d="M3 42.574h60L3 5v80h60L3 25z"/><g fill="#FFF"><path d="M6.05 28.483a12.84 12.84 0 0 0 23.9 0c0 6.6-5.35 11.95-11.95 11.95s-11.95-5.35-11.95-11.95"/><g transform="translate(-4.244 17.362)"><circle cx="22.244" cy="16.683" r="5.561"/><path d="M24.371 11.55l-.619-2.448-1.506 2.014M26.174 12.754l.365-2.498-2.162 1.284M27.378 14.557l1.293-2.168-2.489.359"/><g><path d="M27.8 16.684l2.026-1.509-2.437-.62M27.378 18.81l2.448-.619-2.014-1.506M26.173 20.613l2.498.365-1.284-2.163"/></g><g><path d="M20.117 11.55l.62-2.448 1.505 2.014M18.315 12.754l-.365-2.498 2.162 1.284M17.11 14.557l-1.293-2.168 2.49.359"/><g><path d="M16.688 16.684l-2.025-1.509 2.437-.62M17.11 18.81l-2.447-.619 2.014-1.506M18.315 20.613l-2.498.365 1.284-2.163"/></g></g></g><g transform="translate(-6.43 39.357)"><circle cx="24.43" cy="24.43" r="8.143"/><path d="M26.54 32.297l-2.11 4.967-2.109-4.967M22.321 16.564l2.11-4.968 2.108 4.968M16.564 26.54l-4.968-2.11 4.968-2.109M32.297 22.321l4.967 2.11-4.967 2.108"/><g><path d="M22.324 32.297l-4.31 3.248.656-5.357M26.537 16.563l4.31-3.247-.657 5.356"/><g><path d="M16.563 22.324l-3.247-4.31 5.356.656M32.297 26.537l3.248 4.31-5.357-.657"/></g></g><g><path d="M18.672 30.19l-5.356.657 3.247-4.31M30.188 18.67l5.357-.657-3.248 4.31"/><g><path d="M18.67 18.672l-.657-5.356 4.31 3.247M30.19 30.188l.657 5.357-4.31-3.248"/></g></g></g></g></g></svg>