<svg viewBox="0 0 50 64" xmlns="http://www.w3.org/2000/svg"><g fill-rule="nonzero" fill="none"><path fill="#ED1C24" d="M21.137 37.95h18.975v9.487H21.137z"/><path fill="#005DA4" d="M21.137 37.95h18.975v6.325H21.137z"/><path fill="#FFF" d="M21.137 37.95h18.975v3.162H21.137z"/><path d="M47.21 35.547L49.202 6.14a57.324 57.324 0 0 0-49.096 0L2.1 35.547a31.833 31.833 0 0 0 22.555 28.322A31.833 31.833 0 0 0 47.21 35.547" fill="#005DA4"/><path d="M6.243 39.531a28.29 28.29 0 0 0 18.411 20.614 28.29 28.29 0 0 0 18.411-20.614L33.86 27.257l-3.683 4.91-5.523-11.047-5.523 11.047-3.682-4.91-9.206 12.274" fill="#FFF"/><path d="M7.066 42.6a6.137 6.137 0 0 0 8.383 2.246 6.137 6.137 0 0 1 6.137 0 6.137 6.137 0 0 0 6.137 0 6.137 6.137 0 0 1 6.137 0 6.137 6.137 0 0 0 8.383-2.246v1.771a6.137 6.137 0 0 1-8.383 2.247 6.137 6.137 0 0 0-6.137 0 6.137 6.137 0 0 1-6.137 0 6.137 6.137 0 0 0-6.137 0 6.137 6.137 0 0 1-8.383-2.247V42.6z" fill="#005DA4"/><path d="M7.066 46.143c1.694 3.613 5.448 4.85 8.383 2.765 1.899-1.35 4.238-1.35 6.137 0 1.898 1.349 4.238 1.349 6.137 0 1.898-1.35 4.238-1.35 6.137 0 2.935 2.085 6.688.848 8.383-2.765v2.18c-1.695 3.613-5.448 4.85-8.383 2.765-1.9-1.35-4.239-1.35-6.137 0-1.9 1.35-4.239 1.35-6.137 0-1.9-1.35-4.238-1.35-6.137 0-2.935 2.086-6.689.848-8.383-2.764v-2.18z" fill="#005DA4"/><path fill="#FD0" d="M24.654 12.682l.46 1.504 1.533-.353-1.072 1.15 1.072 1.151-1.533-.354-.46 1.505-.46-1.505-1.533.354 1.073-1.15-1.073-1.151 1.533.353zM18.222 3.512l.567 1.851 1.886-.435-1.32 1.416 1.32 1.417-1.886-.436-.567 1.852-.566-1.852-1.887.436 1.32-1.417-1.32-1.416 1.887.435zM32.03 3.512l.567 1.851 1.886-.435-1.32 1.416 1.32 1.417-1.886-.436-.567 1.852-.566-1.852-1.887.436 1.32-1.417-1.32-1.416 1.887.435z"/><path d="M1.829 5.358l2.037 30.07A30.061 30.061 0 0 0 24.654 62.01a30.061 30.061 0 0 0 20.788-26.583l2.038-30.07c.57.27 1.144.53 1.722.782L47.21 35.546A31.833 31.833 0 0 1 24.654 63.87 31.833 31.833 0 0 1 2.1 35.546L.106 6.14a57.324 57.324 0 0 0 1.723-.782" fill="#ED1C24"/></g></svg>