<svg viewBox="0 0 24 12" xmlns="http://www.w3.org/2000/svg"><g fill-rule="nonzero" fill="none"><path fill="#DC241F" d="M24 12V0H0v12z"/><path fill="#FFC726" d="M0 0v12l12-6z"/><path fill="#000" d="M0 0v12l8-6z"/><g fill="#FFF"><path d="M2.06 4.122l.314 2.076.988-.149z"/><path d="M2.06 4.122l1.474 1.496-.712.702z"/><path d="M4.496 4.526l-1.878.94.447.894z"/><path d="M4.496 4.526L3.53 6.39l-.888-.46z"/><g><path d="M.923 6.313l2.072.344.164-.986z"/><path d="M.923 6.313l1.879-.94.447.895z"/></g><g><path d="M4.864 6.968L3.39 5.47l-.712.702z"/><path d="M4.864 6.968l-2.072-.345.164-.986z"/><g><path d="M2.656 8.072l.967-1.864-.887-.461z"/><path d="M2.656 8.072l-.313-2.077.989-.149z"/></g></g></g></g></svg>