<svg width="27" height="18" viewBox="0 0 27 18" xmlns="http://www.w3.org/2000/svg"><g fill="none" fill-rule="evenodd"><path fill="#FFF" fill-rule="nonzero" d="M0 0h27v18H0z"/><path d="M10 2h17v2H10V2zm0 4h17v2H10V6zM0 10h27v2H0v-2zm0 4h27v2H0v-2z" fill="#0038A8" fill-rule="nonzero"/><g transform="translate(1.15 1.15)" stroke="#000" stroke-width=".5"><path d="M3.624 4.828l.33.494c-1.36.984-.53 1.567-1.493 1.882.6-.585-.095-.635.41-1.854" fill="#FCD116" fill-rule="nonzero" stroke-linecap="square"/><path d="M3.387 4.968c-.75 1.237-.258 1.917-.926 2.236"/><path fill="#FCD116" fill-rule="nonzero" d="M3.85 3.85h.66l-.66 3.63-.66-3.63h.66v3.63"/><g><path d="M2.999 4.381l-.116.584c-1.658-.266-1.482.733-2.387.274.838.01.382-.515 1.602-1.02" fill="#FCD116" fill-rule="nonzero" stroke-linecap="square"/><path d="M2.732 4.313c-1.405.344-1.538 1.173-2.236.926"/><path fill="#FCD116" fill-rule="nonzero" d="M3.85 3.85l.467.467-3.034 2.1 2.1-3.034.467.467-2.567 2.567"/></g><g><path d="M2.872 3.624l-.494.33C1.394 2.595.81 3.425.496 2.462c.585.6.635-.095 1.854.41" fill="#FCD116" fill-rule="nonzero" stroke-linecap="square"/><path d="M2.732 3.387C1.495 2.637.815 3.129.496 2.461"/><path fill="#FCD116" fill-rule="nonzero" d="M3.85 3.85v.66L.22 3.85l3.63-.66v.66H.22"/><g><path d="M3.319 2.999l-.584-.116c.266-1.658-.733-1.482-.274-2.387-.01.838.515.382 1.02 1.602" fill="#FCD116" fill-rule="nonzero" stroke-linecap="square"/><path d="M3.387 2.732C3.043 1.327 2.214 1.194 2.461.496"/><path fill="#FCD116" fill-rule="nonzero" d="M3.85 3.85l-.467.467-2.1-3.034 3.034 2.1-.467.467-2.567-2.567"/></g></g><g><path d="M4.076 2.872l-.33-.494c1.36-.984.53-1.567 1.493-1.882-.6.585.095.635-.41 1.854" fill="#FCD116" fill-rule="nonzero" stroke-linecap="square"/><path d="M4.313 2.732c.75-1.237.258-1.917.926-2.236"/><path fill="#FCD116" fill-rule="nonzero" d="M3.85 3.85h-.66L3.85.22l.66 3.63h-.66V.22"/><g><path d="M4.701 3.319l.116-.584c1.658.266 1.482-.733 2.387-.274-.838-.01-.382.515-1.602 1.02" fill="#FCD116" fill-rule="nonzero" stroke-linecap="square"/><path d="M4.968 3.387c1.405-.344 1.538-1.173 2.236-.926"/><path fill="#FCD116" fill-rule="nonzero" d="M3.85 3.85l-.467-.467 3.034-2.1-2.1 3.034-.467-.467 2.567-2.567"/></g><g><path d="M4.828 4.076l.494-.33c.984 1.36 1.567.53 1.882 1.493-.585-.6-.635.095-1.854-.41" fill="#FCD116" fill-rule="nonzero" stroke-linecap="square"/><path d="M4.968 4.313c1.237.75 1.917.258 2.236.926"/><path fill="#FCD116" fill-rule="nonzero" d="M3.85 3.85v-.66l3.63.66-3.63.66v-.66h3.63"/><g><path d="M4.381 4.701l.584.116c-.266 1.658.733 1.482.274 2.387.01-.838-.515-.382-1.02-1.602" fill="#FCD116" fill-rule="nonzero" stroke-linecap="square"/><path d="M4.313 4.968c.344 1.405 1.173 1.538.926 2.236"/><path fill="#FCD116" fill-rule="nonzero" d="M3.85 3.85l.467-.467 2.1 3.034-3.034-2.1.467-.467 2.567 2.567"/></g></g></g><circle fill="#FCD116" fill-rule="nonzero" cx="3.85" cy="3.85" r="1.21"/></g><g fill="#000" fill-rule="nonzero"><path d="M5.891 4.516c-.077.088-.121-.066-.396-.066s-.319.165-.363.132c-.044-.033.231-.231.319-.242.088-.011.341.077.44.176m-.319.099c.077.066.011.209-.066.209s-.22-.132-.154-.22"/><path d="M5.209 4.714c.011-.132.121-.154.297-.154s.253.132.319.165c-.077 0-.143-.11-.319-.11-.176 0-.176 0-.297.11m.033.022c.044-.066.099.066.22.066a.401.401 0 0 0 .264-.088c.077-.055-.11.132-.231.132-.121 0-.286-.066-.253-.11"/><path d="M5.616 4.813c.184-.077.07-.187 0-.209.028.022.142.132 0 .209M5 5.473c.066 0 .088-.022.176-.022s.297.121.418.077c-.253.099-.154.033-.594.033h-.055m.693.066c-.044-.077-.033-.055-.121-.176.088.066.11.099.121.176M5 5.737c.275 0 .231-.055.594-.209-.264.033-.319.121-.594.121h-.055M5 5.33c.077 0 .099-.055.187-.055s.209.033.264.077c.011.011-.033-.088-.121-.099-.088-.011-.055-.154-.154-.176 0 .044.033.033.044.099 0 .055-.099.055-.121 0 .022.088-.044.088-.099.088"/><g><path d="M4.109 4.516c.077.088.121-.066.396-.066s.319.165.363.132c.044-.033-.231-.231-.319-.242-.088-.011-.341.077-.44.176m.319.099c-.077.066-.011.209.066.209s.22-.132.154-.22"/><path d="M4.791 4.714c-.011-.132-.121-.154-.297-.154s-.253.132-.319.165c.077 0 .143-.11.319-.11.176 0 .176 0 .297.11m-.033.022c-.044-.066-.099.066-.22.066a.401.401 0 0 1-.264-.088c-.077-.055.11.132.231.132.121 0 .286-.066.253-.11"/><path d="M4.384 4.813c-.184-.077-.07-.187 0-.209-.028.022-.142.132 0 .209m.616.66c-.066 0-.088-.022-.176-.022s-.297.121-.418.077c.253.099.154.033.594.033h.055m-.693.066c.044-.077.033-.055.121-.176-.088.066-.11.099-.121.176m.638.11c-.275 0-.231-.055-.594-.209.264.033.319.121.594.121h.055M5 5.33c-.077 0-.099-.055-.187-.055a.498.498 0 0 0-.264.077c-.011.011.033-.088.121-.099.088-.011.055-.154.154-.176 0 .044-.033.033-.044.099 0 .055.099.055.121 0-.022.088.044.088.099.088"/></g><path d="M5 5.836c-.055 0-.198.1 0 .1s.055-.1 0-.1"/></g></g></svg>