<svg viewBox="0 0 40 30" xmlns="http://www.w3.org/2000/svg"><g fill-rule="nonzero" fill="none"><path fill="#DA251D" d="M0 0h40v30H0z"/><g fill="#FF0"><path d="M20 9l-1.854 5.706 3.804 1.236"/><path d="M20 9l1.854 5.706-3.804 1.236"/></g><g fill="#FF0"><path d="M25.706 13.146h-6v4"/><path d="M25.706 13.146l-4.854 3.527-2.35-3.236"/><g><path d="M23.527 19.854l-1.854-5.706-3.805 1.236"/><path d="M23.527 19.854l-4.854-3.527 2.35-3.236"/></g></g><g fill="#FF0"><path d="M14.294 13.146h6v4"/><path d="M14.294 13.146l4.854 3.527 2.35-3.236"/><g><path d="M16.473 19.854l1.854-5.706 3.805 1.236"/><path d="M16.473 19.854l4.854-3.527-2.35-3.236"/></g></g></g></svg>