<?xml version="1.0" encoding="UTF-8"?>
<svg width="170px" height="37px" class="svg-ico svg-ico-logo" viewBox="0 0 170 37" version="1.1" xmlns="http://www.w3.org/2000/svg" xmlns:xlink="http://www.w3.org/1999/xlink">
    <g stroke="none" fill-rule="evenodd" stroke-width="1">
        <polygon fill="#ffffff" id="Shape" points="10.54 19.3409091 7.99 19.3409091 7.14 22.3681818 12.24 22.3681818 14.11 24.8909091 12.58 31.7863636 9.52 34.1409091 1.87 34.1409091 0 31.7863636 1.02 27.4136364 6.12 27.4136364 5.78 29.0954545 8.16 29.0954545 9.01 26.0681818 3.74 26.0681818 1.87 23.7136364 3.4 16.8181818 6.46 14.4636364 13.94 14.4636364 16.15 16.8181818 14.96 21.1909091 9.86 21.1909091"></polygon>
        <polygon fill="#ffffff" id="Shape" points="30.77 14.2954545 29.58 19.3409091 25.84 19.3409091 22.44 34.1409091 17.34 34.1409091 20.74 19.3409091 16.83 19.3409091 18.02 14.2954545"></polygon>
        <path fill="#ffffff" d="M27.37,34.1409091 L31.28,16.65 L34.51,14.2954545 L41.99,14.2954545 L43.86,16.65 L40.12,34.1409091 L35.02,34.1409091 L36.21,29.0954545 L33.66,29.0954545 L32.47,34.1409091 L27.37,34.1409091 Z M38.42,19.3409091 L35.87,19.3409091 L34.68,24.3863636 L37.4,24.3863636 L38.42,19.3409091 Z" id="Shape"></path>
        <path fill="#ffffff" d="M97.58,34.1409091 L101.49,16.65 L104.72,14.2954545 L112.2,14.2954545 L114.07,16.65 L110.16,34.1409091 L105.06,34.1409091 L106.25,29.0954545 L103.7,29.0954545 L102.51,34.1409091 L97.58,34.1409091 Z M108.46,19.3409091 L106.08,19.3409091 L104.89,24.3863636 L107.44,24.3863636 L108.46,19.3409091 Z" id="Shape"></path>
        <path fill="#ffffff" d="M111.52,34.1409091 L116.11,14.2954545 L126.31,14.2954545 L128.35,16.65 L124.95,31.7863636 L121.89,34.1409091 L111.52,34.1409091 Z M117.81,29.0954545 L120.36,29.0954545 L122.74,19.1727273 L120.19,19.1727273 L117.81,29.0954545 Z" id="Shape"></path>
        <path fill="#ffffff" d="M125.46,34.1409091 L130.05,14.2954545 L140.25,14.2954545 L142.29,16.65 L138.89,31.7863636 L135.83,34.1409091 L125.46,34.1409091 Z M131.75,29.0954545 L134.3,29.0954545 L136.68,19.1727273 L134.13,19.1727273 L131.75,29.0954545 Z" id="Shape"></path>
        <path fill="#ffffff" d="M153.17,29.0954545 L151.98,34.1409091 L141.78,34.1409091 L139.91,31.7863636 L143.31,16.65 L146.37,14.2954545 L156.57,14.2954545 L155.38,19.3409091 L147.9,19.3409091 L147.22,21.8636364 L154.87,21.8636364 L153.68,26.9090909 L146.2,26.9090909 L145.69,29.4318182 C145.69,29.0954545 153.17,29.0954545 153.17,29.0954545 Z" id="Shape"></path>
        <path fill="#ffffff" d="M158.44,34.1409091 L153.34,34.1409091 L157.93,14.2954545 L168.13,14.2954545 L170,16.8181818 L168.81,21.8636364 L165.75,24.3863636 L167.79,26.9090909 L166.6,31.9545455 L166.09,34.3090909 L161.16,34.3090909 L162.86,26.9090909 L160.48,26.9090909 L158.44,34.1409091 Z M161.33,21.6954545 L163.71,21.6954545 L164.39,19.1727273 L161.84,19.1727273 L161.33,21.6954545 Z" id="Shape"></path>
        <polygon id="logo-star" points="72.08 27.4045455 78.2 32.7863636 77.69 22.7045455 77.52 21.8636364 78.37 21.3590909 88.55 15.8090909 78.71 15.8090909 77.52 15.5904327 77.18 14.2954545 76.67 6.05454545 71.23 15.1363636 70.89 15.8090909 69.87 15.8090909 59.7386619 16.1758875 65.9444829 21.3590909 66.8812106 22.2255872 66.47 23.0409091 60.8705412 32.4515313 70.21 27.2363636 71.23 26.5636364"></polygon>
        <path fill="#ffffff" d="M89.76,29.0954545 L93.16,14.2954545 L93.16,14.2954545 L93.16,14.2954545 L88.91,14.2954545 L78.71,14.2954545 L78.2,4.70909091 L78.03,0.840909091 L75.99,4.20454545 L69.87,14.2954545 L59.16,14.2954545 L56.1,14.2954545 L56.1,14.2954545 L45.9,14.2954545 L41.48,34.1409091 L46.58,34.1409091 L48.45,26.7409091 L50.83,26.7409091 L49.13,34.1409091 L54.06,34.1409091 L54.57,31.7863636 L55.76,26.7409091 L53.72,24.2181818 L56.78,21.6954545 L57.97,16.1454545 L58.14,16.3136364 L64.77,22.2 L58.82,32.1227273 L56.44,36.1590909 L60.52,33.6363636 L70.72,27.4136364 L77.52,33.4681818 L79.73,35.3181818 L79.56,32.4590909 L79.05,22.5363636 L87.21,17.6590909 L84.15,31.6181818 L86.02,34.1409091 L96.22,34.1409091 L97.41,29.0954545 L89.76,29.0954545 Z M51.85,21.6954545 L49.47,21.6954545 L49.98,19.1727273 L52.53,19.1727273 L51.85,21.6954545 Z M78.37,21.3590909 L77.52,21.8636364 L77.52,22.8727273 L78.03,31.9545455 L72.08,26.5727273 L71.23,25.7318182 L70.21,26.4045455 L61.37,31.7863636 L66.47,23.3772727 L67.15,22.2 L66.13,21.3590909 L60.18,16.1454545 L69.87,16.1454545 L70.72,16.1454545 L71.23,15.3045455 L76.67,6.39090909 L77.18,14.6318182 L77.35,16.1454545 L78.88,16.1454545 L87.72,16.1454545 L78.37,21.3590909 Z" id="Shape"></path>
    </g>
</svg>