<svg width="79" height="66" viewBox="0 0 79 66" xmlns="http://www.w3.org/2000/svg"><path d="M7.255 39.734c-.198.907-.3 1.84-.3 2.784 0 11.314 14.49 20.534 32.303 20.534 17.807 0 32.297-9.214 32.297-20.534 0-.9-.096-1.794-.27-2.659l-.05-.105a1.496 1.496 0 0 1-.095-.542c-.994-3.861-3.677-7.364-7.558-10.197a1.39 1.39 0 0 1-.414-.23c-.086-.066-.148-.138-.22-.21-5.9-4.055-14.339-6.599-23.687-6.599-9.265 0-17.622 2.495-23.52 6.477-.155.188-.36.33-.59.408-3.97 2.832-6.721 6.365-7.748 10.262a1.49 1.49 0 0 1-.122.562l-.026.05zm32.168 17.88c-5.905 0-10.063-1.278-12.716-3.933a1.477 1.477 0 0 1 0-2.077 1.549 1.549 0 0 1 2.09 0c2.074 2.067 5.547 3.098 10.626 3.098 5.075 0 8.528-.985 10.595-3.052a1.526 1.526 0 0 1 2.07 0 1.582 1.582 0 0 1 0 2.12c-2.662 2.654-6.797 3.936-12.711 3.936l.046-.092zm-11.87-24.885c-3.008 0-5.52 2.513-5.52 5.51 0 2.99 2.512 5.422 5.52 5.422a5.426 5.426 0 0 0 5.435-5.422c0-2.997-2.433-5.51-5.435-5.51zm23.808 0c-3.008 0-5.523 2.513-5.523 5.51 0 2.99 2.515 5.422 5.523 5.422a5.426 5.426 0 0 0 5.434-5.422c0-2.997-2.432-5.51-5.434-5.51zm14.97-5.242c3.413 2.738 5.925 5.984 7.205 9.543a5.97 5.97 0 0 0-1.199-10.37 5.992 5.992 0 0 0-6.006.834v-.007zm-57.408-1.18a5.99 5.99 0 0 0-5.608 3.927 5.974 5.974 0 0 0 1.747 6.612c1.32-3.546 3.858-6.746 7.285-9.45a5.997 5.997 0 0 0-3.42-1.082v-.006h-.004zM39.261 66C19.821 66 4.012 55.468 4.012 42.53c0-.903.076-1.787.224-2.658A8.945 8.945 0 0 1 0 32.268c.022-4.93 4.031-8.915 8.97-8.915a8.896 8.896 0 0 1 5.914 2.241c6.11-3.913 14.341-6.378 23.41-6.545L44.258.896l1.33.312s.052 0 .052.007l13.9 3.263a7.366 7.366 0 0 1 8.246-4.33A7.354 7.354 0 0 1 73.68 7.35c0 4.049-3.302 7.341-7.344 7.341s-7.34-3.299-7.34-7.328L46.322 4.366l-4.829 14.712c8.723.345 16.612 2.806 22.527 6.641a8.773 8.773 0 0 1 6.034-2.362c4.933-.004 8.937 3.983 8.946 8.908 0 3.244-1.777 6.198-4.536 7.772.096.838.194 1.623.194 2.461C74.61 55.438 58.84 65.97 39.373 65.97l-.112.03zM66.183 2.95a4.404 4.404 0 0 0-4.408 4.4c0 2.43 1.974 4.4 4.408 4.4 2.41 0 4.378-1.971 4.378-4.383 0-2.41-1.969-4.377-4.434-4.377l.056-.04z" fill-rule="nonzero"/></svg>
