<svg width="28" height="20" viewBox="0 0 28 20" xmlns="http://www.w3.org/2000/svg"><path fill-rule="evenodd" d="M11.11 13.625l7.562-3.906-7.563-3.953v7.859zM14 .156c1.75 0 3.44.024 5.07.07 1.63.047 2.826.097 3.586.149l1.14.063c.011 0 .1.007.267.023.166.016.286.031.359.047.073.015.195.039.367.07.172.031.32.073.445.125.125.052.271.12.438.203.167.084.328.185.484.305a3.706 3.706 0 0 1 .696.703c.099.13.25.435.453.914a5.95 5.95 0 0 1 .414 1.578c.083.667.148 1.378.195 2.133.047.755.076 1.346.086 1.774v2.75a33.08 33.08 0 0 1-.281 4.53 6.234 6.234 0 0 1-.39 1.555c-.188.464-.355.784-.5.961l-.22.266a3.706 3.706 0 0 1-.453.414c-.156.12-.317.219-.484.297-.167.078-.313.143-.438.195a2.176 2.176 0 0 1-.445.125 24.42 24.42 0 0 0-.375.07 9.555 9.555 0 0 1-.617.07c-2.615.199-5.88.298-9.797.298-2.156-.021-4.029-.055-5.617-.102a121.797 121.797 0 0 1-3.133-.117l-.766-.063-.562-.062a7.418 7.418 0 0 1-.852-.156 4.8 4.8 0 0 1-.797-.328 2.986 2.986 0 0 1-1.125-.93c-.099-.13-.25-.435-.453-.914a5.95 5.95 0 0 1-.414-1.578 34.429 34.429 0 0 1-.195-2.133A50.185 50.185 0 0 1 0 11.687v-2.75c-.01-1.51.083-3.02.281-4.53a6.234 6.234 0 0 1 .39-1.555c.188-.464.355-.784.5-.961l.22-.266c.145-.156.296-.294.453-.414C2 1.09 2.16.99 2.328.906a7.14 7.14 0 0 1 .438-.203C2.89.651 3.039.61 3.21.578s.294-.055.367-.07a3.48 3.48 0 0 1 .36-.047l.265-.024C6.818.25 10.083.157 14 .157z"/></svg>